PathFileType	4	(X/Y/Z)	C:/Users/opensim2020/Desktop/walking_exp_matlab/subject06_walking22_straight_04.trc	
DataRate	CameraRate	NumFrames	NumMarkers	Units	OrigDataRate	OrigDataStartFrame	OrigNumFrames	
100.00	100.00	4	44	mm	100.00	2251	102	
Frame#	Time	LFHD			RFHD			LBHD			RBHD			C7			T10			CLAV			STRN			RBAK			LSHO			LUPA			LELB			LFRM			LWRA			LWRB			LFIN			RSHO			RUPA			RELB			RFRM			RWRA			RWRB			RFIN			LASI			RASI			LPSI			RPSI			LTHI			LKNE			LTIB			LANK			LHEE			LTOE			RTHI			RKNE			RTIB			RANK			RHEE			RTOE			*39			*40			*41			*42			*43			
		X1	Y1	Z1	X2	Y2	Z2	X3	Y3	Z3	X4	Y4	Z4	X5	Y5	Z5	X6	Y6	Z6	X7	Y7	Z7	X8	Y8	Z8	X9	Y9	Z9	X10	Y10	Z10	X11	Y11	Z11	X12	Y12	Z12	X13	Y13	Z13	X14	Y14	Z14	X15	Y15	Z15	X16	Y16	Z16	X17	Y17	Z17	X18	Y18	Z18	X19	Y19	Z19	X20	Y20	Z20	X21	Y21	Z21	X22	Y22	Z22	X23	Y23	Z23	X24	Y24	Z24	X25	Y25	Z25	X26	Y26	Z26	X27	Y27	Z27	X28	Y28	Z28	X29	Y29	Z29	X30	Y30	Z30	X31	Y31	Z31	X32	Y32	Z32	X33	Y33	Z33	X34	Y34	Z34	X35	Y35	Z35	X36	Y36	Z36	X37	Y37	Z37	X38	Y38	Z38	X39	Y39	Z39	X40	Y40	Z40	X41	Y41	Z41	X42	Y42	Z42	X43	Y43	Z43	X44	Y44	Z44	

64	0.630	-907.96387	-186.87823	1614.01978	-1039.66687	-199.65802	1607.09766	-923.75226	-49.71282	1572.78735	-1052.02319	-64.73226	1570.30005	-970.78748	-43.67788	1407.45239	-976.27838	-26.10677	1075.52942	-976.45221	-156.07394	1332.78650	-962.01044	-202.27180	1161.07471	-1031.29126	29.58884	1230.61121	-813.47211	-106.02155	1369.27905	-731.41614	-154.51593	1179.03064	-712.76746	-187.86923	1072.58435	-703.71869	-304.88303	980.20020	-761.83533	-421.62125	952.15894	-725.33411	-391.92215	900.23950	-731.12451	-480.12268	884.76129	-1133.74805	-92.65555	1360.09497	-1210.69189	20.39252	1201.03101	-1231.02283	63.82515	1086.51282	-1255.98743	108.42319	975.48547	-1243.07117	119.45935	821.58807	-1271.25696	173.03084	852.77924	-1279.93506	180.42180	767.98364	-855.40137	-195.10701	918.06714	-1077.89990	-223.45416	935.53241	-906.58209	-42.11358	946.62793	-1072.90356	-68.25709	954.32520	-817.08435	-67.01781	610.83270	-839.18311	-29.34961	449.11295	-853.51794	161.21858	272.89453	-897.88562	278.23480	147.87390	-943.35345	316.28534	163.11774	-902.40625	188.05620	35.90927	-1152.06274	-258.60968	618.11237	-1122.14258	-310.96606	507.58044	-1127.39087	-347.23224	245.03250	-1086.03003	-388.23645	64.76746	-1037.74841	-356.37753	40.38997	-1090.96423	-543.13049	46.35614	-975.92975	-97.34551	1663.23438												 
65	0.640	-908.89008	-200.52203	1615.30896	-1040.51941	-213.82158	1608.70691	-925.48694	-63.84715	1573.39771	-1053.59302	-79.15438	1571.33496	-972.56030	-58.81293	1408.41980	-976.06183	-42.61998	1075.46948	-977.69055	-171.30302	1334.01538	-962.79175	-218.38249	1162.46448	-1033.32092	13.54623	1230.12915	-814.30109	-120.52988	1369.85303	-732.92633	-168.86516	1178.73645	-714.29767	-202.03004	1072.11328	-705.46466	-318.72656	979.49890	-763.40887	-435.62631	951.40344	-726.86047	-405.71194	899.50714	-732.87866	-493.87369	883.92902	-1135.39014	-108.51588	1360.41833	-1212.11597	3.44700	1200.66931	-1232.46448	46.50856	1085.99512	-1257.22607	90.69123	974.65894	-1243.97864	101.20532	820.64191	-1272.04248	154.87633	851.63330	-1280.64014	161.78461	766.81134	-857.03510	-212.76199	918.28253	-1079.12195	-241.04843	936.81415	-906.22284	-59.64725	946.65076	-1072.91309	-84.60503	956.45093	-818.36035	-86.57256	609.63934	-839.30682	-50.35268	447.77762	-855.39111	145.56879	278.95029	-899.35919	265.65137	157.46172	-945.96014	301.59848	174.73952	-902.58398	186.03052	37.04194	-1154.89478	-275.83060	621.80280	-1125.17102	-329.21173	511.73083	-1129.88074	-361.63123	248.54890	-1086.57813	-390.25140	64.85651	-1038.92847	-357.48477	41.24932	-1090.82861	-545.13751	41.40781	-977.09180	-110.90019	1664.31287												 
66	0.650	-909.79266	-214.29984	1616.55884	-1041.31555	-228.14322	1610.22510	-926.77795	-77.68993	1574.40674	-1055.22522	-93.71382	1572.54187	-973.70612	-74.41484	1409.75439	-975.88788	-58.78980	1076.06592	-978.68341	-186.60832	1335.31567	-963.50494	-234.25192	1163.89685	-1035.30676	-2.38047	1230.66296	-815.09326	-135.72621	1370.87280	-734.37653	-182.67786	1178.93103	-715.91534	-215.59830	1072.00220	-707.08112	-332.04654	978.65967	-764.85394	-448.80069	950.15674	-728.40381	-418.64322	898.45874	-734.45667	-506.75537	882.49731	-1136.76465	-124.56542	1361.04150	-1214.04419	-13.95310	1200.42224	-1233.92810	28.38870	1085.38684	-1258.52551	72.02445	973.77832	-1244.91284	82.13742	819.82605	-1273.30017	135.65710	850.32050	-1281.33191	142.06834	765.48138	-858.99432	-229.81941	918.75330	-1080.33936	-257.77109	939.07391	-905.39215	-76.77551	946.58014	-1072.43994	-100.48335	958.65460	-819.82336	-106.75464	608.39264	-839.39972	-72.37441	446.60522	-857.56409	127.99947	285.07669	-900.54883	251.74548	167.41447	-947.78839	285.56870	186.53888	-902.82660	181.90053	39.67969	-1156.40833	-293.00293	626.14172	-1126.69556	-347.37958	515.73370	-1131.57605	-372.05225	250.49796	-1086.28015	-391.73831	66.66949	-1039.32983	-358.59222	42.18923	-1090.89771	-546.91681	38.55188	-978.18060	-124.93592	1665.49475												 
67	0.660	-910.61816	-228.16290	1617.93799	-1042.13574	-242.54091	1611.77246	-928.19116	-91.67139	1575.39429	-1056.83423	-108.35068	1573.87256	-975.05475	-89.73857	1410.88757	-975.87134	-74.49878	1077.17224	-979.44409	-202.01442	1336.66199	-964.09900	-249.98492	1165.28088	-1037.07434	-18.16693	1231.81787	-815.98364	-151.22295	1372.18665	-735.75726	-196.27481	1179.55078	-717.88330	-228.97983	1072.53589	-708.83118	-344.67780	978.01062	-766.32135	-461.24817	948.53357	-729.91284	-430.51740	897.04340	-735.70850	-518.49261	880.32672	-1137.82129	-140.67297	1361.96436	-1215.58008	-31.84772	1200.01208	-1235.36243	9.66062	1084.78137	-1259.91797	52.39999	972.88074	-1245.54968	61.75050	818.81262	-1274.94922	114.74301	848.96094	-1282.09314	121.38364	763.93488	-861.08673	-246.58270	919.41559	-1081.42163	-273.51251	942.14166	-904.48718	-93.38580	946.62335	-1071.40466	-115.17182	960.74139	-821.28119	-127.03703	607.40582	-839.85748	-95.64882	445.38541	-858.41327	108.84916	291.11890	-901.63611	236.00381	177.53104	-949.36285	267.74710	198.80208	-903.87494	175.79520	44.05524	-1157.53577	-310.51099	630.67169	-1127.71790	-363.75763	518.74225	-1132.84790	-379.51035	251.97122	-1086.11804	-394.43820	67.61057	-1039.95703	-359.86887	43.18713	-1089.73987	-549.12952	36.23921	-979.41541	-138.97551	1666.63806												 
